<?xml version="1.0" encoding="utf-8"?>
<!-- Generator: Adobe Illustrator 19.2.1, SVG Export Plug-In . SVG Version: 6.00 Build 0)  -->
<svg version="1.1" id="Ebene_1" xmlns="http://www.w3.org/2000/svg" xmlns:xlink="http://www.w3.org/1999/xlink" x="0px" y="0px"
	 viewBox="0 0 170 100" style="enable-background:new 0 0 170 100;" xml:space="preserve">
<style type="text/css">
	.st0{fill:#43B7AB;}
</style>
<g>
	<path class="st0" d="M57.2,60.5c0.3,0.3,0.7,0.5,1.2,0.5c0.5,0,0.9-0.2,1.2-0.5c0.3-0.3,0.5-0.7,0.5-1.2V36c0-0.5-0.2-0.9-0.5-1.2
		c-0.3-0.3-0.7-0.5-1.2-0.5c-0.5,0-0.9,0.2-1.2,0.5c-0.3,0.4-0.5,0.8-0.5,1.2V46H42.3V36c0-0.5-0.2-0.9-0.5-1.2
		c-0.4-0.3-0.8-0.5-1.2-0.5c-0.5,0-0.9,0.2-1.2,0.5c-0.3,0.4-0.5,0.8-0.5,1.2v23.3c0,0.5,0.2,0.9,0.5,1.2c0.3,0.3,0.7,0.5,1.2,0.5
		c0.5,0,0.9-0.2,1.2-0.5c0.3-0.3,0.5-0.7,0.5-1.2v-10h14.4v10C56.7,59.8,56.8,60.2,57.2,60.5z"/>
	<path class="st0" d="M120.7,58c-1.7,0-3.1-0.2-4.3-0.5c-1.2-0.3-2.1-0.6-2.7-0.9c-0.5-0.2-1-0.4-1.3-0.4s-0.7,0.2-0.9,0.5
		s-0.4,0.7-0.4,1c0,0.4,0.1,0.7,0.3,1c0.2,0.3,0.5,0.5,0.7,0.6c2.8,1.2,5.8,1.8,9,1.8c2.9,0,5.3-0.7,7.1-2.1
		c1.8-1.4,2.6-3.1,2.6-5.3c0-2.3-0.9-4.1-2.5-5.3c-0.8-0.5-1.6-1-2.6-1.3c-0.9-0.4-1.9-0.7-2.9-0.9c-1-0.2-2-0.5-3-0.7
		c-1-0.2-1.8-0.5-2.6-0.9c-1.7-0.8-2.5-1.9-2.5-3.3c0-1.4,0.6-2.4,1.9-3.2c1.3-0.7,2.9-1.1,4.8-1.1c2.1,0,4,0.3,5.6,0.9
		c0.6,0.2,1,0.3,1.3,0.3c0.3,0,0.6-0.2,0.9-0.5c0.3-0.3,0.4-0.7,0.4-1.1c0-0.8-0.4-1.3-1.1-1.5c-2.2-0.8-4.7-1.2-7.5-1.2
		c-3.1,0-5.5,0.8-7.3,2.3c-1.7,1.4-2.5,3.2-2.5,5.5c0,2.1,0.9,3.7,2.5,5c0.7,0.6,1.6,1,2.6,1.4c1,0.4,2,0.7,3,0.9
		c1,0.3,2,0.5,2.9,0.8c1,0.2,1.8,0.5,2.6,0.8c1.7,0.7,2.5,1.7,2.5,2.9C127.3,56.5,125.1,58,120.7,58z"/>
	<path class="st0" d="M141.6,23.3H28.1c-1.8,0-3.2,1.4-3.2,3.2v41.8c0,0.8,0.3,1.6,0.9,2.1c0.6,0.6,1.4,0.8,2.1,0.8L64.8,71
		c0.9,0,1.7-0.8,1.7-1.7c0-0.9-0.8-1.7-1.7-1.7c0,0,0,0,0,0l-36.4,0.2v-41h112.7v40.7l-41.8-0.3c-0.8-0.1-1.6,0.2-2.3,0.6L74.7,81.3
		V59c0-0.1,0-0.1,0-0.2V37.3l8.7,21.6c0.2,0.5,0.5,0.9,1,1.2s0.9,0.4,1.5,0.4s1-0.1,1.5-0.4c0.4-0.3,0.7-0.7,0.9-1.1l8.8-21.6v21.5
		c0,0.5,0.2,0.9,0.5,1.2c0.3,0.3,0.7,0.5,1.2,0.5s0.9-0.2,1.2-0.5c0.3-0.3,0.5-0.7,0.5-1.2V36.2c0-0.7-0.2-1.3-0.7-1.8
		c-0.5-0.5-1.1-0.7-1.8-0.7h-1.2c-0.5,0-1,0.2-1.4,0.5c-0.4,0.3-0.7,0.7-0.9,1.1l-8.6,21.4l-8.6-21.4c-0.2-0.4-0.5-0.8-0.9-1.1
		c-0.4-0.3-0.9-0.5-1.4-0.5h-1.2c-0.7,0-1.3,0.2-1.8,0.7c-0.5,0.5-0.7,1.1-0.7,1.8v22.6c0,0,0,0.1,0,0.1v25.5c0,0.6,0.3,1.2,0.9,1.5
		c0.3,0.1,0.6,0.2,0.8,0.2c0.3,0,0.6-0.1,0.9-0.2l24.9-15.1c0.2-0.1,0.3-0.1,0.5-0.1c0,0,0,0,0,0l42.2,0.3c0,0,0,0,0,0
		c0.8,0,1.6-0.3,2.1-0.9c0.6-0.6,0.9-1.3,0.9-2.2V26.3C144.5,24.6,143.2,23.3,141.6,23.3z"/>
</g>
</svg>
