<svg fill="none" height="56" viewBox="0 0 120 56" width="120" xmlns="http://www.w3.org/2000/svg">
<g fill="#161e2e">
<path d="m10.1 40.5c-2.2 0-4.4-.9-6.1-2.2v-22.3h3.6v8.3c.8-.9 2.3-1.8 3.4-1.8 4.3 0 6.3 4.2 6.3 8 0 4.6-1.7 10-7.2 10zm.6-14.7c-1 0-2.4 1.1-3.1 1.7v9.1c.7.5 1.8.9 2.7.9 2.8 0 3.3-4.6 3.3-6.7 0-1.8-.4-5-2.9-5z"/>
<path d="m20.4 40c-.4-1-1-3.1-1-7.1v-16.9h3.6v16.9c0 2.8.4 4.5 1.2 7.1z"/>
<path d="m38.6 40.5c-1.1-.1-2.4-1.2-2.7-2.1-1.3 1-3.5 2.1-5.1 2.1-3.4 0-4.7-1.7-4.7-4.9v-12.5h3.6v12.6c0 1.1.2 1.7 1.5 1.7s3-.9 4.1-1.7v-12.6h3.7v13.8c0 1.1.7 1.7.7 1.7z"/>
</g>
<path d="m47.2 40.5c-1.7 0-3.8-1-5.1-2.1l1.3-2.4c1 .7 2.7 1.6 3.9 1.6 1.3 0 2.6-.5 2.6-2 0-1-.9-1.7-1.7-2.1-1.6-.8-3.1-1.6-4.7-2.5-1.2-.7-1.9-2.1-1.9-3.5 0-3.3 2.9-5 6-5 1.8 0 4.2.8 5.3 2.3l-1.9 2c-.8-.9-2.2-1.4-3.4-1.4-1 0-2.3.7-2.3 1.9 0 .9 1 1.4 1.6 1.7l4.2 2.1c1.6.8 2.4 2.5 2.4 4.2 0 3.5-3.1 5.2-6.3 5.2z" fill="#161e2e"/>
<path d="m65.1999 40-6.2999-7.9v7.9h-3.7v-24h3.7v12.6l4.6999-5.5h4.5l-6.1999 7.2 6.7999 8.3v1.4z" fill="#161e2e"/>
<path d="m75.1 45.1c-1.3.9-3.6 1.5-3.6 1.5l-.8-2.7c1.1-.3 1.8-.7 2.3-1.2.8-.7 1.2-1.5 1.9-2.7l-5.9-16.9h3.8c1 3.2 3 9.5 3 9.5.3 1.1.7 2.3.9 3.5 1.4-4.2 2.6-8.6 3.5-13h3.8c-1.2 5.1-4.8 19-8.9 22z" fill="#161e2e"/>
<path d="m90.6 30.9h-2.9c-1 0-1.8-.8-1.8-1.8v-4.6c0-1 .8-1.8 1.8-1.8h2.9c1 0 1.8.8 1.8 1.8v4.6c0 1-.8 1.8-1.8 1.8zm-2.9-6.9c-.3 0-.5.2-.5.5v4.6c0 .3.2.5.5.5h2.9c.3 0 .5-.2.5-.5v-4.6c0-.3-.2-.5-.5-.5z" fill="#161e2e"/>
<path d="m100.4 26h-4.8c-1 0-1.8-.8-1.8-1.8v-7.4c0-1 .8-1.8 1.8-1.8h4.8c1 0 1.8.8 1.8 1.8v7.4c0 1-.8 1.8-1.8 1.8zm-4.8-9.8c-.3 0-.5.2-.5.5v7.4c0 .3.2.5.5.5h4.8c.3 0 .5-.2.5-.5v-7.4c0-.3-.2-.5-.5-.5z" fill="#161e2e"/>
<path d="m113.9 18.7h-8.6c-1 0-1.8-.8-1.8-1.8v-14.1c0-1 .8-1.8 1.8-1.8h8.6c1 0 1.8.8 1.8 1.8v14.1c0 1-.8 1.8-1.8 1.8zm-8.6-16.4c-.3 0-.5.2-.5.5v14.1c0 .3.2.5.5.5h8.6c.3 0 .5-.2.5-.5v-14.1c0-.3-.2-.5-.5-.5z" fill="#161e2e"/>
</svg>
